<svg xmlns="http://www.w3.org/2000/svg" viewBox="0 0 770.65 130.41"><defs><style>.cls-1{isolation:isolate;}.cls-2{opacity:0.37;mix-blend-mode:multiply;}.cls-3{fill:#b3b3b3;}.cls-4{fill:#a38a79;}</style></defs><g class="cls-1"><g id="Layer_1" data-name="Layer 1"><g class="cls-2"><path class="cls-3" d="M31.9,120.25A1.52,1.52,0,0,0,33.63,122q1.73,0,4.65-3.66c1.95-2.43,3.28-3.61,4-3.52.53.53,0,1.68-1.73,3.46a8.55,8.55,0,0,0-.93,1.39c-.44.76-.82,1.36-1.13,1.8s-.73,1-1.26,1.73a15.91,15.91,0,0,1-1.47,1.73c-.44.44-.93.88-1.46,1.33a4.7,4.7,0,0,1-2.79,1.33,15.77,15.77,0,0,1-3.26-.47c-1.38-.31-2.08-.64-2.13-1a8.3,8.3,0,0,1-.06-.93q0-6.92,11.3-28.33a21.73,21.73,0,0,1-2.73-.13,1.27,1.27,0,0,1-1.19-1.06c-.14-.62,0-1,.53-1.07a4.91,4.91,0,0,1,1.53,0,19.13,19.13,0,0,0,2.79.14q6.78-12.24,8.11-15a10.57,10.57,0,0,0,1.33-3.92A9.91,9.91,0,0,0,47.59,74c.35-2.48,2.51-5.74,6.45-9.78s7.52-6,10.71-6a11.63,11.63,0,0,1,4.32,1.2c1.82.8,2.86,1.71,3.13,2.72s.33,1.6.2,1.73-.43.12-.87-.06a3.58,3.58,0,0,0-.8-.27q-9.57,0-27.26,31.26a108.77,108.77,0,0,0,29.72-5.79q15.24-5.12,23.34-13.5,4.66-4.52,4.66-9.57Q101.19,51,70.73,51a103.58,103.58,0,0,0-33.25,5.32,44.23,44.23,0,0,0-14,7.85Q17.66,69.05,16.6,75.3A9,9,0,0,0,16.47,77a5.59,5.59,0,0,0,.86,2.59A6.68,6.68,0,0,0,19.4,82a29,29,0,0,0,3.39,1.86,22,22,0,0,1,2.92,1.6c.49.35.6.73.34,1.13s-.85.51-1.73.33a14.44,14.44,0,0,1-7.72-4.12Q13,79.29,13,75.3a10.9,10.9,0,0,1,.27-2.4A20.72,20.72,0,0,1,13,70.78q1.86-10,19.55-19,14-6.52,33-6.52a85.66,85.66,0,0,1,23.14,3.19Q96.4,51.1,100.39,56t4,10a18.44,18.44,0,0,1-6.12,13.63,44.3,44.3,0,0,1-13.69,9.11q-18,7.71-42.3,8.25-5.19,9.57-7.78,15.56T31.9,120.25Z" transform="translate(-12.01 -42.78)"/><path class="cls-3" d="M103.32,125.84q-6.79,0-6.79-8.18t11.71-20.15a16.46,16.46,0,0,0,1.33-1.46l.93-1.33c1.24-1.69,1.81-2.75,1.73-3.2l-.4-1.19c-.36-1.07-1.82-1.84-4.39-2.33a34.92,34.92,0,0,0-6.25-.73q-12,16.89-13.83,19.28c-1.25,1.6-2.09,2.26-2.53,2a1.13,1.13,0,0,1-.67-.93A3.25,3.25,0,0,1,85,106,108.75,108.75,0,0,0,97.33,87.27a4,4,0,0,1-2.39-1.13c-.53-.58-.58-1.55-.14-2.93s1.8-3.21,4.06-5.52A22.56,22.56,0,0,1,104.78,73c1.68-.8,2.75-1.29,3.19-1.47a4,4,0,0,1,1.46-.26c1.07,0,.71,1.59-1.06,4.79l-5.19,8.24c4,.27,7.41.4,10.24.4l4.66-.13a7,7,0,0,1,3.32.6c.71.4.89,1.08.54,2.06a25.31,25.31,0,0,1-4.66,6.78,66.89,66.89,0,0,0-12,19.82,13,13,0,0,0-.93,4.39q0,3.85,2.79,3.85a9.45,9.45,0,0,0,3.53-1.46q2.6-1.45,8.71-7a65.08,65.08,0,0,0,9.84-10.84,1,1,0,0,1,1.26-.33c.49.22.74.44.74.66a1.32,1.32,0,0,1-.27.73,51.34,51.34,0,0,1-7.18,9.18,65.27,65.27,0,0,1-10.11,9A16.51,16.51,0,0,1,103.32,125.84Z" transform="translate(-12.01 -42.78)"/><path class="cls-3" d="M140.42,85.67q3.33,0,4,2.13a3.28,3.28,0,0,1-.33,2.33c-.4.75-.69,1.35-.87,1.79s-.31.8-.39,1.07c-.45.88-.89,1.73-1.33,2.52q-7.59,15.17-8,19.29a28.13,28.13,0,0,0-.14,3.06,4.44,4.44,0,0,0,1.07,3.06q1.86,2.13,5.32.26a56.31,56.31,0,0,0,9.64-7.44,71.87,71.87,0,0,0,10-10.91.9.9,0,0,1,1.2-.33q.66.33.66.66a1.38,1.38,0,0,1-.26.73,51.49,51.49,0,0,1-7.19,9.18q-8.5,9.18-14.23,11.31a17.27,17.27,0,0,1-5.58,1.19,6.83,6.83,0,0,1-7-5,8.23,8.23,0,0,1-.27-2.26q0-4.67,4.26-14.1c-.45,1-2.18,3.19-5.19,6.65q-1.2,1.34-1.86,0a1.65,1.65,0,0,1-.13-.73,1.92,1.92,0,0,1,.53-1.13q6.51-8.11,10.24-13.7a2.13,2.13,0,0,1,.27-1.73q2.66-7.45,4.65-7.85ZM150.93,68l-1.07,4.26c0,.8-.57,2.08-1.72,3.86s-2,2.66-2.66,2.66c-3.82,0-5.72-.93-5.72-2.8,0-.35,1.9-2,5.72-4.92l2.26-1.73c1.41-1.24,2.3-1.86,2.66-1.86A.47.47,0,0,1,150.93,68Z" transform="translate(-12.01 -42.78)"/><path class="cls-3" d="M154.25,173.19a11.74,11.74,0,0,1-2.66-.4q-6.78-1.74-6.78-7.12t7-13.5q7-8.11,29.46-23,12.51-25.53,15.83-35.77-1.59,1.86-6.25,8t-8.25,10.51a52.61,52.61,0,0,1-8.64,8.18q-5.06,3.85-9.31,3.86a10.09,10.09,0,0,1-6.59-1.93,6.48,6.48,0,0,1-2.59-4.06,29.26,29.26,0,0,1-.27-3.59,20.57,20.57,0,0,1,2.66-9.84,43.89,43.89,0,0,1,10.78-14c1.68-1.59,3.17-2.39,4.45-2.39a5.75,5.75,0,0,1,3.53,1.2c1.15,1.24,1.5,2.3,1.06,3.19q-5.06,2.93-11.57,11.3a26.93,26.93,0,0,0-4.79,11.44,16.8,16.8,0,0,0-.13,2.33,2.73,2.73,0,0,0,1.13,2.26,3.76,3.76,0,0,0,2.33.86c2.74,0,5.63-1.46,8.64-4.38s5.9-6,8.65-9.25,5.87-7.11,9.37-11.64l6.92-8.91c1.11-1.41,2.24-2.12,3.39-2.12A9.33,9.33,0,0,1,206,85.67c1.51.8,2.15,1.42,1.93,1.86s-2.48,5.48-6.78,15.1-7.43,16.51-9.38,20.68q3.19-1.73,10.84-8.18a94.47,94.47,0,0,0,13-13.1c.88-1.06,1.46-1.15,1.73-.26a2.17,2.17,0,0,1,.13.86,3.23,3.23,0,0,1-.8,1.66A109.85,109.85,0,0,1,203.46,118q-9,8.25-14.36,11.17-11.31,23.28-15.16,29.26Q164,173.2,154.25,173.19Zm24.48-39q-16,12-22.81,18.88T149.07,165q0,5,3.45,5,2.67,0,6.12-2.72a34.49,34.49,0,0,0,6.65-7.25,67,67,0,0,0,4.86-7.78q1.65-3.26,4.59-9.58T178.73,134.22Z" transform="translate(-12.01 -42.78)"/><path class="cls-3" d="M219.69,124a10.16,10.16,0,0,1-4.59-1.27,12,12,0,0,1-4.19-3.59,8.22,8.22,0,0,1-1.73-5,11.14,11.14,0,0,1,1.2-5A34.72,34.72,0,0,1,219,98.24a77.14,77.14,0,0,1,12.3-9,42.33,42.33,0,0,1,10.11-4.65,29.78,29.78,0,0,1,7.24-.93,10.26,10.26,0,0,1,6.06,1.79q2.52,1.8,2.52,3.79c0,.45,0,.71-.13.8s-.31,0-.66-.13c-1.07-1.68-3.26-2.53-6.59-2.53s-7.09,1.09-11.3,3.26a58.57,58.57,0,0,0-11.91,8.18,52.33,52.33,0,0,0-8.18,9.91q-3.53,5.52-3.52,8,0,4.93,2.79,4.93t8.51-4.53a168.37,168.37,0,0,0,12.91-11.7q12.22-13.17,13.16-13.17a10.49,10.49,0,0,1,3.86.93c1.51.62,2,1.38,1.46,2.26q-6.78,9.58-8,19.29a28.49,28.49,0,0,0-.13,3.06,4.44,4.44,0,0,0,1.06,3.06q2,2.13,5.46.26a56.31,56.31,0,0,0,9.64-7.44,66.65,66.65,0,0,0,9.91-10.91.89.89,0,0,1,1.19-.33c.45.22.67.42.67.6q0,2-6.32,8.71a78.58,78.58,0,0,1-9.64,9.11q-6.26,4.65-11.57,4.65-5.06,0-6.78-5a14.66,14.66,0,0,1-.4-3.59,35.73,35.73,0,0,1,2.52-12.64,52.92,52.92,0,0,0-4.92,5.32,78.15,78.15,0,0,1-10.17,9.71Q224.34,124,219.69,124Z" transform="translate(-12.01 -42.78)"/><path class="cls-3" d="M310.92,84.74Q314,84.74,314,88t-3.06,9q-3.06,5.72-4.52,9.31-2.52,6.12-2.53,9.77c0,2.44.36,4.06,1.07,4.86,1.33,1.42,3.14,1.48,5.45.2a61.24,61.24,0,0,0,9.64-7.45,63.6,63.6,0,0,0,9.91-10.84,1,1,0,0,1,1.27-.33c.48.22.73.44.73.66a1.32,1.32,0,0,1-.27.73,51.34,51.34,0,0,1-7.18,9.18,65.81,65.81,0,0,1-10,9,16.33,16.33,0,0,1-9.44,3.39q-4.51-.14-6.38-2.06a6.69,6.69,0,0,1-1.86-4.86,29,29,0,0,1,.53-5.65,34.91,34.91,0,0,1,2-6.32,90.11,90.11,0,0,1,4.19-8.91c1.2-2.13,1.8-3.52,1.8-4.19s-.36-1-1.07-1q-2.13,0-8.11,5.18Q292,101.49,284,112.21t-9.11,11.37c-3.19,1.59-5.19,2.39-6,2.39s-1.2-.13-1.2-.4a3.84,3.84,0,0,1,.26-1.13c.18-.49,1.05-2.9,2.6-7.25s3.23-9.11,5.05-14.29,2.93-8.32,3.33-9.38a15.19,15.19,0,0,0,.79-2.73,14.79,14.79,0,0,1,.47-1.93,6.74,6.74,0,0,1,1-1.79A2.46,2.46,0,0,1,283.13,86a14.24,14.24,0,0,1,3.06.27c1.24.22,1.86.78,1.86,1.66A13.45,13.45,0,0,1,286.58,92q-1.45,3.12-8.37,21.48,4.79-5.85,12.1-13.5a126.62,126.62,0,0,1,12.37-11.64Q307.74,84.75,310.92,84.74Z" transform="translate(-12.01 -42.78)"/><path class="cls-3" d="M329.54,123.84c-1.15,1.33-1.39,2.4-.73,3.2a2.93,2.93,0,0,0,2.26,1.19,8.94,8.94,0,0,0,2.6-.4,28,28,0,0,0,11.1-6.85q5.39-5.12,5.39-10.44,0-2.92-6.52-6.38c-2-1.06-3.19-1.68-3.46-1.86-2.39-1.6-3.9-3.19-4.52-4.79q-1.86,3.19-6,9.18c-.62.71-1.2.86-1.73.46s-.58-1-.14-1.66Q333.27,98,335,93q.93-7.32,10.64-13.17T363.32,74c3.37,0,5.75.6,7.12,1.79s2.06,2.38,2.06,3.53a10,10,0,0,1-1,4,10.33,10.33,0,0,1-4.05,4.25.84.84,0,0,1-1.33-.26c-.18-.53.2-1.27,1.13-2.2A6.71,6.71,0,0,0,369,81.28c.27-1.59-.44-2.57-2.12-2.92h-.8q-5.19,0-13,3.85a32.29,32.29,0,0,0-12.17,10,7.54,7.54,0,0,0-1.73,4.59c0,1.55,1.07,3,3.19,4.19q1.33.8,4.53,2.52t4.52,2.53a20.82,20.82,0,0,1,3.19,2.53,5.43,5.43,0,0,1,2,3.19q.66,4-3.73,8.78-6.26,6.92-18.62,9.71a24.5,24.5,0,0,1-5.65.66,4,4,0,0,1-3.92-2.13,2.74,2.74,0,0,1-.4-1.66c0-.75.71-2,2.12-3.66a20.36,20.36,0,0,1,6.39-3.85.59.59,0,0,1,.66.13.62.62,0,0,1,.14.67c-.09.26-.56.57-1.4.93A7.31,7.31,0,0,0,329.54,123.84Z" transform="translate(-12.01 -42.78)"/><path class="cls-3" d="M413.2,44.71a11.69,11.69,0,0,1,4.12-.93q5.85,0,7.72,3.19a5.31,5.31,0,0,1,1.06,2.79q0,9-15.16,22.75Q397.5,84.35,386.2,92.85a219.42,219.42,0,0,0-7.71,20.62q4.78-5.85,12.1-13.57,14.76-15.29,20.61-15.29a2.72,2.72,0,0,1,3.06,2.92A10.13,10.13,0,0,1,413,93.39q-1.53,2.79-2.86,5.18-6.25,10.38-6.25,18.49a5.73,5.73,0,0,0,1.06,3.86c1.24,1.42,3,1.51,5.32.26a55.92,55.92,0,0,0,9.64-7.44,72,72,0,0,0,10-10.91q.66-.66,1.26-.33t.6.66a1.32,1.32,0,0,1-.27.73,49.62,49.62,0,0,1-7.18,9.11,72.41,72.41,0,0,1-8.38,7.92q-6.12,4.65-11.7,4.65-5.06,0-6.79-5a9.28,9.28,0,0,1-.39-2.86,24.68,24.68,0,0,1,.26-3.53q.66-5.58,7.05-17.42a8.6,8.6,0,0,0,1.33-3.39c0-.67-.35-1-1.06-1q-2.13,0-8.25,5.32-4.12,3.85-12.17,14.57t-9.11,11.37C372,125.17,370,126,369.24,126s-1.17-.11-1.26-.33a1.07,1.07,0,0,1,.13-.87q.27-.52,2.13-5.85,6.25-17.69,8.51-23.41-4.38,5.59-10.9,12.64c-.72.71-1.07.55-1.07-.47a5.22,5.22,0,0,1,1.2-3.12q1.2-1.61,5-6.19t5.38-6.85a2.18,2.18,0,0,1-1.26-1.86,1.59,1.59,0,0,1,.8-1.66c.57-.31,1.53-.2,2.86.33a26.8,26.8,0,0,0,2.39-4.12Q399,50.16,413.2,44.71Zm7.45,10a11.9,11.9,0,0,0,1.73-5.38c0-1.47-.65-2.2-1.93-2.2s-3,.8-5.12,2.4q-14.64,11.16-26.47,37.37A115.8,115.8,0,0,0,407,72Q416.39,62.67,420.65,54.68Z" transform="translate(-12.01 -42.78)"/><path class="cls-3" d="M441,85.67q3.33,0,4,2.13a3.34,3.34,0,0,1-.34,2.33,17.64,17.64,0,0,0-.86,1.79c-.18.45-.31.8-.4,1.07-.45.88-.89,1.73-1.33,2.52q-7.59,15.17-8,19.29a28.49,28.49,0,0,0-.13,3.06,4.44,4.44,0,0,0,1.06,3.06q1.86,2.13,5.32.26a56.31,56.31,0,0,0,9.64-7.44,71.35,71.35,0,0,0,10-10.91.91.91,0,0,1,1.2-.33c.44.22.67.44.67.66a1.32,1.32,0,0,1-.27.73,51.34,51.34,0,0,1-7.18,9.18q-8.52,9.18-14.23,11.31a17.32,17.32,0,0,1-5.59,1.19,6.83,6.83,0,0,1-7.05-5,8.26,8.26,0,0,1-.26-2.26q0-4.67,4.25-14.1c-.44,1-2.17,3.19-5.19,6.65q-1.19,1.34-1.86,0a1.65,1.65,0,0,1-.13-.73,2,2,0,0,1,.53-1.13q6.51-8.11,10.24-13.7a2.13,2.13,0,0,1,.27-1.73q2.65-7.45,4.65-7.85ZM451.5,68l-1.06,4.26c0,.8-.58,2.08-1.73,3.86s-2,2.66-2.66,2.66q-5.71,0-5.72-2.8,0-.52,5.72-4.92l2.26-1.73c1.42-1.24,2.3-1.86,2.66-1.86A.47.47,0,0,1,451.5,68Z" transform="translate(-12.01 -42.78)"/><path class="cls-3" d="M568.81,57.48a25.08,25.08,0,0,1,3.19-4q-5.87-.14-17.56-1.07-14.49-1.2-19.81-1.19t-14.77.93a59.2,59.2,0,0,0-21.74,7Q489,64.39,487.28,72.37A6.07,6.07,0,0,0,487,74.3a6.76,6.76,0,0,0,.73,2.73,7.31,7.31,0,0,0,1.8,2.52,23.35,23.35,0,0,0,3.26,2.27,29.26,29.26,0,0,1,2.92,1.92c.49.4.58.74.27,1a1.42,1.42,0,0,1-.93.4,4,4,0,0,1-1-.13,15.73,15.73,0,0,1-7.65-5q-3.12-3.66-3.12-6.12a11.81,11.81,0,0,1,.66-4.19,11.88,11.88,0,0,1,.14-2.13q2-9.44,12.1-14.63,12.1-6.24,29.79-6.25a217.62,217.62,0,0,1,28.26,2.4q17.49,2.38,19.49,2.39,3.59-4,5.45-4.12a9.91,9.91,0,0,1,1.86-.13,3,3,0,0,1,2.13.86,2.49,2.49,0,0,1,.93,1.8,2.83,2.83,0,0,1-.8,1.86A21,21,0,0,1,580,54.48a35.06,35.06,0,0,0-3.92,3.26q-6.92,6.91-6.91,12.11a6.4,6.4,0,0,0,.93,3.65c.62.93.57,1.6-.14,2s-1.46.11-2.26-.87q-1.34-1.06-1.33-6.78A22.28,22.28,0,0,1,568.81,57.48ZM518.13,114.8c.27,0,.4.27.4.8s-.62,1.42-1.86,2.66l-1.33,2c-2.39,3.64-4.15,5.76-5.25,6.39a6,6,0,0,1-2.66.93,15.49,15.49,0,0,1-3.06-.47c-1.38-.31-2.09-.64-2.13-1a21.22,21.22,0,0,1-.07-2.26q0-1.73,2.53-8.31a125.86,125.86,0,0,1,5.85-13q6.12-12,12.24-23.14A8.31,8.31,0,0,0,524,75.9a3.87,3.87,0,0,0-.39-1.93q.79-3.85,6.58-9.84t10.57-6a11.5,11.5,0,0,1,5.19,1.66q3.06,1.66,2.66,4.33a3,3,0,0,0-1.73-.67q-5.58,0-14,10.91a180.88,180.88,0,0,0-23.68,41.49,13.54,13.54,0,0,0-1.06,3.79v1.27c.35.88,1.08,1.15,2.19.8a6.77,6.77,0,0,0,3.13-2.4C515.78,116.31,517.34,114.8,518.13,114.8Z" transform="translate(-12.01 -42.78)"/><path class="cls-3" d="M538.75,124a10.16,10.16,0,0,1-4.59-1.27,12,12,0,0,1-4.19-3.59,8.22,8.22,0,0,1-1.73-5,11.14,11.14,0,0,1,1.2-5A34.72,34.72,0,0,1,538,98.24a77.14,77.14,0,0,1,12.3-9,42.33,42.33,0,0,1,10.11-4.65,29.8,29.8,0,0,1,7.25-.93,10.25,10.25,0,0,1,6.05,1.79q2.52,1.8,2.52,3.79c0,.45,0,.71-.13.8s-.31,0-.66-.13c-1.07-1.68-3.26-2.53-6.59-2.53s-7.09,1.09-11.3,3.26a58.57,58.57,0,0,0-11.91,8.18,52.33,52.33,0,0,0-8.18,9.91q-3.53,5.52-3.52,8,0,4.93,2.79,4.93t8.51-4.53a168.37,168.37,0,0,0,12.91-11.7q12.23-13.17,13.16-13.17a10.49,10.49,0,0,1,3.86.93c1.51.62,2,1.38,1.46,2.26q-6.78,9.58-8,19.29a28.49,28.49,0,0,0-.13,3.06,4.44,4.44,0,0,0,1.06,3.06q2,2.13,5.46.26a56.31,56.31,0,0,0,9.64-7.44,66.65,66.65,0,0,0,9.91-10.91.89.89,0,0,1,1.19-.33c.45.22.67.42.67.6q0,2-6.32,8.71a78.58,78.58,0,0,1-9.64,9.11q-6.25,4.65-11.57,4.65-5.06,0-6.78-5a14.66,14.66,0,0,1-.4-3.59,35.73,35.73,0,0,1,2.52-12.64,52.92,52.92,0,0,0-4.92,5.32,78.15,78.15,0,0,1-10.17,9.71Q543.4,124,538.75,124Z" transform="translate(-12.01 -42.78)"/><path class="cls-3" d="M630,84.74Q633,84.74,633,88T630,97q-3.06,5.72-4.52,9.31-2.52,6.12-2.53,9.77c0,2.44.36,4.06,1.07,4.86,1.33,1.42,3.14,1.48,5.45.2a61.24,61.24,0,0,0,9.64-7.45A63.6,63.6,0,0,0,649,102.83a1,1,0,0,1,1.27-.33c.48.22.73.44.73.66a1.32,1.32,0,0,1-.27.73,51.34,51.34,0,0,1-7.18,9.18,65.81,65.81,0,0,1-10,9,16.33,16.33,0,0,1-9.44,3.39q-4.51-.14-6.38-2.06a6.73,6.73,0,0,1-1.86-4.86,29,29,0,0,1,.53-5.65,34.91,34.91,0,0,1,2-6.32,92.46,92.46,0,0,1,4.19-8.91c1.2-2.13,1.8-3.52,1.8-4.19s-.36-1-1.07-1q-2.13,0-8.11,5.18-4.12,3.85-12.17,14.57t-9.11,11.37c-3.19,1.59-5.19,2.39-6,2.39s-1.2-.13-1.2-.4a3.84,3.84,0,0,1,.26-1.13c.18-.49,1.05-2.9,2.6-7.25s3.23-9.11,5-14.29,2.93-8.32,3.33-9.38a16.22,16.22,0,0,0,.8-2.73,13.43,13.43,0,0,1,.46-1.93,6.74,6.74,0,0,1,1-1.79A2.46,2.46,0,0,1,602.19,86a14.24,14.24,0,0,1,3.06.27c1.24.22,1.86.78,1.86,1.66A13.45,13.45,0,0,1,605.64,92q-1.46,3.12-8.37,21.48,4.79-5.85,12.1-13.5a126.62,126.62,0,0,1,12.37-11.64Q626.8,84.75,630,84.74Z" transform="translate(-12.01 -42.78)"/><path class="cls-3" d="M678,83.81q7.17,0,7.18,6.92a8.53,8.53,0,0,1-2,5.85q-3.31,4.92-10.77,8.58t-12.63,4c-1.25.09-1.91-.26-2-1.06-.09-.35,0-.58.33-.67a3.31,3.31,0,0,1,.73-.13,21.22,21.22,0,0,0,7.85-2.92q8.91-4.8,13-9.85A7.89,7.89,0,0,0,681.45,90a1.91,1.91,0,0,0-2.12-2.19,11.37,11.37,0,0,0-4.66,1.46q-6.25,2.92-13.17,10.18t-9,14.16a14.12,14.12,0,0,0-.66,4.19,5.74,5.74,0,0,0,1.72,3.93q1.74,1.86,5.32,1.86a24.66,24.66,0,0,0,9.18-2.13q15-6.12,23.14-18.49c.54-.71,1-.84,1.47-.4.35.18.53.4.53.67a1.62,1.62,0,0,1-.4.93A47.57,47.57,0,0,1,682.65,116q-11.83,10.09-23,10.1-9.57,0-13.43-5.71a9.81,9.81,0,0,1-1.46-5.46,21.12,21.12,0,0,1,1.73-7.58q3.32-7.57,14.23-15.56T678,83.81Z" transform="translate(-12.01 -42.78)"/><path class="cls-3" d="M659.51,173.19a11.67,11.67,0,0,1-2.66-.4q-6.92-1.87-6.92-7.25T657,152.11q7-8.06,29.53-23A270.07,270.07,0,0,0,700.6,95.25q-1.07,1.34-4.38,5.25T692,105.76c-.62.88-1.2.93-1.73.13a2.07,2.07,0,0,1,.4-1.86q2.52-3.06,6.78-8.85t5.19-6.85q2.65-2.39,7.45.67c1.15.8,1.59,1.46,1.33,2q-7.73,18.09-14.37,32.45,2.93-1.59,10.24-8a146.9,146.9,0,0,0,13.17-13.1c2-2.31,2.93-2.66,2.93-1.07q0,3.33-16,17.56-9.32,8.25-13,10.37-11.29,23.28-15.16,29.26Q668.95,173.2,659.51,173.19Zm24.47-39q-16,12-22.88,18.95t-6.91,13.1a3,3,0,0,0,1.19,2.66,4.53,4.53,0,0,0,2.53.8c.89,0,2.18-.67,3.86-2a39.68,39.68,0,0,0,4.32-3.92c1.2-1.29,2.24-2.48,3.13-3.59s1.88-2.53,3-4.26l2.59-4.05q.93-1.47,2.6-4.59l2.26-4.26q.6-1.12,2.26-4.59C683,136.17,683.71,134.75,684,134.22ZM720.69,68l-1.07,4.26c0,.8-.6,2.08-1.79,3.86s-2.11,2.66-2.73,2.66q-5.72,0-5.72-2.8,0-.52,5.72-4.92l2.26-1.73a9.9,9.9,0,0,1,2.86-1.86C720.53,67.45,720.69,67.63,720.69,68Z" transform="translate(-12.01 -42.78)"/><path class="cls-3" d="M724.94,124a10.16,10.16,0,0,1-4.59-1.27,12,12,0,0,1-4.18-3.59,8.15,8.15,0,0,1-1.73-5,11.26,11.26,0,0,1,1.19-5,34.87,34.87,0,0,1,8.58-10.84,78,78,0,0,1,12.3-9,42.68,42.68,0,0,1,10.11-4.65,29.86,29.86,0,0,1,7.25-.93,10.2,10.2,0,0,1,6,1.79c1.68,1.2,2.53,2.46,2.53,3.79a1.47,1.47,0,0,1-.13.8c-.09.09-.32,0-.67-.13-1.06-1.68-3.26-2.53-6.58-2.53s-7.1,1.09-11.31,3.26a58.51,58.51,0,0,0-11.9,8.18,52,52,0,0,0-8.18,9.91q-3.52,5.52-3.53,8c0,3.29.94,4.93,2.8,4.93s4.7-1.51,8.51-4.53a169.67,169.67,0,0,0,12.9-11.7q12.24-13.17,13.17-13.17a10.53,10.53,0,0,1,3.86.93c1.5.62,2,1.38,1.46,2.26q-6.78,9.58-8,19.29a28.13,28.13,0,0,0-.14,3.06,4.44,4.44,0,0,0,1.07,3.06q2,2.13,5.45.26a55.92,55.92,0,0,0,9.64-7.44,65.75,65.75,0,0,0,9.91-10.91.9.9,0,0,1,1.2-.33c.44.22.67.42.67.6q0,2-6.32,8.71a78.58,78.58,0,0,1-9.64,9.11q-6.26,4.65-11.58,4.65-5.05,0-6.78-5a15.16,15.16,0,0,1-.4-3.59,35.53,35.53,0,0,1,2.53-12.64,50.29,50.29,0,0,0-4.92,5.32,78.9,78.9,0,0,1-10.18,9.71Q729.61,124,724.94,124Z" transform="translate(-12.01 -42.78)"/></g><path class="cls-4" d="M30.9,119.25A1.52,1.52,0,0,0,32.63,121q1.73,0,4.65-3.66c1.95-2.43,3.28-3.61,4-3.52.53.53,0,1.68-1.73,3.46a8.55,8.55,0,0,0-.93,1.39c-.44.76-.82,1.36-1.13,1.8s-.73,1-1.26,1.73a15.91,15.91,0,0,1-1.47,1.73c-.44.44-.93.88-1.46,1.33a4.7,4.7,0,0,1-2.79,1.33,15.77,15.77,0,0,1-3.26-.47c-1.38-.31-2.08-.64-2.13-1a8.3,8.3,0,0,1-.06-.93q0-6.92,11.3-28.33a21.73,21.73,0,0,1-2.73-.13,1.27,1.27,0,0,1-1.19-1.06c-.14-.62,0-1,.53-1.07a4.91,4.91,0,0,1,1.53,0,19.13,19.13,0,0,0,2.79.14q6.78-12.24,8.11-15a10.57,10.57,0,0,0,1.33-3.92A9.91,9.91,0,0,0,46.59,73c.35-2.48,2.51-5.74,6.45-9.78s7.52-6,10.71-6a11.63,11.63,0,0,1,4.32,1.2c1.82.8,2.86,1.71,3.13,2.72s.33,1.6.2,1.73-.43.12-.87-.06a3.58,3.58,0,0,0-.8-.27q-9.57,0-27.26,31.26a108.77,108.77,0,0,0,29.72-5.79q15.24-5.12,23.34-13.5,4.66-4.52,4.66-9.57Q100.19,50,69.73,50a103.58,103.58,0,0,0-33.25,5.32,44.23,44.23,0,0,0-14,7.85Q16.66,68.05,15.6,74.3A9,9,0,0,0,15.47,76a5.59,5.59,0,0,0,.86,2.59A6.68,6.68,0,0,0,18.4,81a29,29,0,0,0,3.39,1.86,22,22,0,0,1,2.92,1.6c.49.35.6.73.34,1.13s-.85.51-1.73.33a14.44,14.44,0,0,1-7.72-4.12Q12,78.29,12,74.3a10.9,10.9,0,0,1,.27-2.4A20.72,20.72,0,0,1,12,69.78q1.86-10,19.55-19,14-6.52,33-6.52a85.66,85.66,0,0,1,23.14,3.19Q95.4,50.1,99.39,55t4,10a18.44,18.44,0,0,1-6.12,13.63,44.3,44.3,0,0,1-13.69,9.11q-18,7.71-42.3,8.25-5.19,9.57-7.78,15.56T30.9,119.25Z" transform="translate(-12.01 -42.78)"/><path class="cls-4" d="M102.32,124.84q-6.79,0-6.79-8.18t11.71-20.15a16.46,16.46,0,0,0,1.33-1.46l.93-1.33c1.24-1.69,1.81-2.75,1.73-3.2l-.4-1.19c-.36-1.07-1.82-1.84-4.39-2.33a34.92,34.92,0,0,0-6.25-.73q-12,16.89-13.83,19.28c-1.25,1.6-2.09,2.26-2.53,2a1.13,1.13,0,0,1-.67-.93A3.25,3.25,0,0,1,84,105,108.75,108.75,0,0,0,96.33,86.27a4,4,0,0,1-2.39-1.13c-.53-.58-.58-1.55-.14-2.93s1.8-3.21,4.06-5.52A22.56,22.56,0,0,1,103.78,72c1.68-.8,2.75-1.29,3.19-1.47a4,4,0,0,1,1.46-.26c1.07,0,.71,1.59-1.06,4.79l-5.19,8.24c4,.27,7.41.4,10.24.4l4.66-.13a7,7,0,0,1,3.32.6c.71.4.89,1.08.54,2.06a25.31,25.31,0,0,1-4.66,6.78,66.89,66.89,0,0,0-12,19.82,13,13,0,0,0-.93,4.39q0,3.85,2.79,3.85a9.45,9.45,0,0,0,3.53-1.46q2.6-1.45,8.71-7a65.08,65.08,0,0,0,9.84-10.84,1,1,0,0,1,1.26-.33c.49.22.74.44.74.66a1.32,1.32,0,0,1-.27.73,51.34,51.34,0,0,1-7.18,9.18,65.27,65.27,0,0,1-10.11,9A16.51,16.51,0,0,1,102.32,124.84Z" transform="translate(-12.01 -42.78)"/><path class="cls-4" d="M139.42,84.67q3.33,0,4,2.13a3.28,3.28,0,0,1-.33,2.33c-.4.75-.69,1.35-.87,1.79s-.31.8-.39,1.07c-.45.88-.89,1.73-1.33,2.52q-7.59,15.17-8,19.29a28.13,28.13,0,0,0-.14,3.06,4.44,4.44,0,0,0,1.07,3.06q1.86,2.13,5.32.26a56.31,56.31,0,0,0,9.64-7.44,71.87,71.87,0,0,0,10-10.91.9.9,0,0,1,1.2-.33q.66.33.66.66a1.38,1.38,0,0,1-.26.73,51.49,51.49,0,0,1-7.19,9.18q-8.5,9.18-14.23,11.31a17.27,17.27,0,0,1-5.58,1.19,6.83,6.83,0,0,1-7-5,8.23,8.23,0,0,1-.27-2.26q0-4.67,4.26-14.1c-.45,1-2.18,3.19-5.19,6.65q-1.2,1.34-1.86,0a1.65,1.65,0,0,1-.13-.73,1.92,1.92,0,0,1,.53-1.13q6.51-8.11,10.24-13.7a2.13,2.13,0,0,1,.27-1.73q2.66-7.45,4.65-7.85ZM149.93,67l-1.07,4.26c0,.8-.57,2.08-1.72,3.86s-2,2.66-2.66,2.66c-3.82,0-5.72-.93-5.72-2.8,0-.35,1.9-2,5.72-4.92l2.26-1.73c1.41-1.24,2.3-1.86,2.66-1.86A.47.47,0,0,1,149.93,67Z" transform="translate(-12.01 -42.78)"/><path class="cls-4" d="M153.25,172.19a11.74,11.74,0,0,1-2.66-.4q-6.78-1.74-6.78-7.12t7-13.5q7-8.11,29.46-23,12.51-25.53,15.83-35.77-1.59,1.86-6.25,8t-8.25,10.51a52.61,52.61,0,0,1-8.64,8.18q-5.06,3.85-9.31,3.86a10.09,10.09,0,0,1-6.59-1.93,6.48,6.48,0,0,1-2.59-4.06,29.26,29.26,0,0,1-.27-3.59,20.57,20.57,0,0,1,2.66-9.84,43.89,43.89,0,0,1,10.78-14c1.68-1.59,3.17-2.39,4.45-2.39a5.75,5.75,0,0,1,3.53,1.2c1.15,1.24,1.5,2.3,1.06,3.19q-5.06,2.93-11.57,11.3a26.93,26.93,0,0,0-4.79,11.44,16.8,16.8,0,0,0-.13,2.33,2.73,2.73,0,0,0,1.13,2.26,3.76,3.76,0,0,0,2.33.86c2.74,0,5.63-1.46,8.64-4.38s5.9-6,8.65-9.25,5.87-7.11,9.37-11.64l6.92-8.91c1.11-1.41,2.24-2.12,3.39-2.12A9.33,9.33,0,0,1,205,84.67c1.51.8,2.15,1.42,1.93,1.86s-2.48,5.48-6.78,15.1-7.43,16.51-9.38,20.68q3.19-1.73,10.84-8.18a94.47,94.47,0,0,0,13-13.1c.88-1.06,1.46-1.15,1.73-.26a2.17,2.17,0,0,1,.13.86,3.23,3.23,0,0,1-.8,1.66A109.85,109.85,0,0,1,202.46,117q-9,8.25-14.36,11.17-11.31,23.28-15.16,29.26Q163,172.2,153.25,172.19Zm24.48-39q-16,12-22.81,18.88T148.07,164q0,5,3.45,5,2.67,0,6.12-2.72a34.49,34.49,0,0,0,6.65-7.25,67,67,0,0,0,4.86-7.78q1.65-3.26,4.59-9.58T177.73,133.22Z" transform="translate(-12.01 -42.78)"/><path class="cls-4" d="M218.69,123a10.16,10.16,0,0,1-4.59-1.27,12,12,0,0,1-4.19-3.59,8.22,8.22,0,0,1-1.73-5,11.14,11.14,0,0,1,1.2-5A34.72,34.72,0,0,1,218,97.24a77.14,77.14,0,0,1,12.3-9,42.33,42.33,0,0,1,10.11-4.65,29.78,29.78,0,0,1,7.24-.93,10.26,10.26,0,0,1,6.06,1.79q2.52,1.8,2.52,3.79c0,.45,0,.71-.13.8s-.31,0-.66-.13c-1.07-1.68-3.26-2.53-6.59-2.53s-7.09,1.09-11.3,3.26a58.57,58.57,0,0,0-11.91,8.18,52.33,52.33,0,0,0-8.18,9.91q-3.53,5.52-3.52,8,0,4.93,2.79,4.93t8.51-4.53a168.37,168.37,0,0,0,12.91-11.7q12.22-13.17,13.16-13.17a10.49,10.49,0,0,1,3.86.93c1.51.62,2,1.38,1.46,2.26q-6.78,9.58-8,19.29a28.49,28.49,0,0,0-.13,3.06,4.44,4.44,0,0,0,1.06,3.06q2,2.13,5.46.26a56.31,56.31,0,0,0,9.64-7.44,66.65,66.65,0,0,0,9.91-10.91.89.89,0,0,1,1.19-.33c.45.22.67.42.67.6q0,2-6.32,8.71a78.58,78.58,0,0,1-9.64,9.11q-6.26,4.65-11.57,4.65-5.06,0-6.78-5a14.66,14.66,0,0,1-.4-3.59,35.73,35.73,0,0,1,2.52-12.64,52.92,52.92,0,0,0-4.92,5.32,78.15,78.15,0,0,1-10.17,9.71Q223.34,123,218.69,123Z" transform="translate(-12.01 -42.78)"/><path class="cls-4" d="M309.92,83.74Q313,83.74,313,87t-3.06,9q-3.06,5.72-4.52,9.31-2.52,6.12-2.53,9.77c0,2.44.36,4.06,1.07,4.86,1.33,1.42,3.14,1.48,5.45.2a61.24,61.24,0,0,0,9.64-7.45,63.6,63.6,0,0,0,9.91-10.84,1,1,0,0,1,1.27-.33c.48.22.73.44.73.66a1.32,1.32,0,0,1-.27.73,51.34,51.34,0,0,1-7.18,9.18,65.81,65.81,0,0,1-10,9,16.33,16.33,0,0,1-9.44,3.39q-4.51-.14-6.38-2.06a6.69,6.69,0,0,1-1.86-4.86,29,29,0,0,1,.53-5.65,34.91,34.91,0,0,1,2-6.32,90.11,90.11,0,0,1,4.19-8.91c1.2-2.13,1.8-3.52,1.8-4.19s-.36-1-1.07-1q-2.13,0-8.11,5.18Q291,100.49,283,111.21t-9.11,11.37c-3.19,1.59-5.19,2.39-6,2.39s-1.2-.13-1.2-.4a3.84,3.84,0,0,1,.26-1.13c.18-.49,1.05-2.9,2.6-7.25s3.23-9.11,5.05-14.29,2.93-8.32,3.33-9.38a15.19,15.19,0,0,0,.79-2.73,14.79,14.79,0,0,1,.47-1.93,6.74,6.74,0,0,1,1-1.79A2.46,2.46,0,0,1,282.13,85a14.24,14.24,0,0,1,3.06.27c1.24.22,1.86.78,1.86,1.66A13.45,13.45,0,0,1,285.58,91q-1.45,3.12-8.37,21.48,4.79-5.85,12.1-13.5a126.62,126.62,0,0,1,12.37-11.64Q306.74,83.75,309.92,83.74Z" transform="translate(-12.01 -42.78)"/><path class="cls-4" d="M328.54,122.84c-1.15,1.33-1.39,2.4-.73,3.2a2.93,2.93,0,0,0,2.26,1.19,8.94,8.94,0,0,0,2.6-.4,28,28,0,0,0,11.1-6.85q5.39-5.12,5.39-10.44,0-2.92-6.52-6.38c-2-1.06-3.19-1.68-3.46-1.86-2.39-1.6-3.9-3.19-4.52-4.79q-1.86,3.19-6,9.18c-.62.71-1.2.86-1.73.46s-.58-1-.14-1.66Q332.27,97,334,92q.93-7.32,10.64-13.17T362.32,73c3.37,0,5.75.6,7.12,1.79s2.06,2.38,2.06,3.53a10,10,0,0,1-1,4,10.33,10.33,0,0,1-4.05,4.25.84.84,0,0,1-1.33-.26c-.18-.53.2-1.27,1.13-2.2A6.71,6.71,0,0,0,368,80.28c.27-1.59-.44-2.57-2.12-2.92h-.8q-5.19,0-13,3.85a32.29,32.29,0,0,0-12.17,10,7.54,7.54,0,0,0-1.73,4.59c0,1.55,1.07,3,3.19,4.19q1.33.8,4.53,2.52t4.52,2.53a20.82,20.82,0,0,1,3.19,2.53,5.43,5.43,0,0,1,2,3.19q.66,4-3.73,8.78-6.26,6.92-18.62,9.71a24.5,24.5,0,0,1-5.65.66,4,4,0,0,1-3.92-2.13,2.74,2.74,0,0,1-.4-1.66c0-.75.71-2,2.12-3.66a20.36,20.36,0,0,1,6.39-3.85.59.59,0,0,1,.66.13.62.62,0,0,1,.14.67c-.09.26-.56.57-1.4.93A7.31,7.31,0,0,0,328.54,122.84Z" transform="translate(-12.01 -42.78)"/><path class="cls-4" d="M412.2,43.71a11.69,11.69,0,0,1,4.12-.93q5.85,0,7.72,3.19a5.31,5.31,0,0,1,1.06,2.79q0,9-15.16,22.75Q396.5,83.35,385.2,91.85a219.42,219.42,0,0,0-7.71,20.62q4.78-5.85,12.1-13.57,14.76-15.29,20.61-15.29a2.72,2.72,0,0,1,3.06,2.92A10.13,10.13,0,0,1,412,92.39q-1.53,2.79-2.86,5.18-6.25,10.38-6.25,18.49a5.73,5.73,0,0,0,1.06,3.86c1.24,1.42,3,1.51,5.32.26a55.92,55.92,0,0,0,9.64-7.44,72,72,0,0,0,10-10.91q.66-.66,1.26-.33t.6.66a1.32,1.32,0,0,1-.27.73,49.62,49.62,0,0,1-7.18,9.11,72.41,72.41,0,0,1-8.38,7.92q-6.12,4.65-11.7,4.65-5.06,0-6.79-5a9.28,9.28,0,0,1-.39-2.86,24.68,24.68,0,0,1,.26-3.53q.66-5.58,7.05-17.42a8.6,8.6,0,0,0,1.33-3.39c0-.67-.35-1-1.06-1q-2.13,0-8.25,5.32-4.12,3.85-12.17,14.57t-9.11,11.37C371,124.17,369,125,368.24,125s-1.17-.11-1.26-.33a1.07,1.07,0,0,1,.13-.87q.27-.52,2.13-5.85,6.25-17.69,8.51-23.41-4.38,5.59-10.9,12.64c-.72.71-1.07.55-1.07-.47a5.22,5.22,0,0,1,1.2-3.12q1.2-1.61,5-6.19t5.38-6.85a2.18,2.18,0,0,1-1.26-1.86,1.59,1.59,0,0,1,.8-1.66c.57-.31,1.53-.2,2.86.33a26.8,26.8,0,0,0,2.39-4.12Q398,49.16,412.2,43.71Zm7.45,10a11.9,11.9,0,0,0,1.73-5.38c0-1.47-.65-2.2-1.93-2.2s-3,.8-5.12,2.4q-14.64,11.16-26.47,37.37A115.8,115.8,0,0,0,406,71Q415.39,61.67,419.65,53.68Z" transform="translate(-12.01 -42.78)"/><path class="cls-4" d="M440,84.67q3.33,0,4,2.13a3.34,3.34,0,0,1-.34,2.33,17.64,17.64,0,0,0-.86,1.79c-.18.45-.31.8-.4,1.07-.45.88-.89,1.73-1.33,2.52q-7.59,15.17-8,19.29a28.49,28.49,0,0,0-.13,3.06,4.44,4.44,0,0,0,1.06,3.06q1.86,2.13,5.32.26a56.31,56.31,0,0,0,9.64-7.44,71.35,71.35,0,0,0,10-10.91.91.91,0,0,1,1.2-.33c.44.22.67.44.67.66a1.32,1.32,0,0,1-.27.73,51.34,51.34,0,0,1-7.18,9.18q-8.52,9.18-14.23,11.31a17.32,17.32,0,0,1-5.59,1.19,6.83,6.83,0,0,1-7.05-5,8.26,8.26,0,0,1-.26-2.26q0-4.67,4.25-14.1c-.44,1-2.17,3.19-5.19,6.65q-1.19,1.34-1.86,0a1.65,1.65,0,0,1-.13-.73,2,2,0,0,1,.53-1.13q6.51-8.11,10.24-13.7a2.13,2.13,0,0,1,.27-1.73q2.65-7.45,4.65-7.85ZM450.5,67l-1.06,4.26c0,.8-.58,2.08-1.73,3.86s-2,2.66-2.66,2.66q-5.71,0-5.72-2.8,0-.52,5.72-4.92l2.26-1.73c1.42-1.24,2.3-1.86,2.66-1.86A.47.47,0,0,1,450.5,67Z" transform="translate(-12.01 -42.78)"/><path class="cls-4" d="M567.81,56.48a25.08,25.08,0,0,1,3.19-4q-5.87-.14-17.56-1.07-14.49-1.2-19.81-1.19t-14.77.93a59.2,59.2,0,0,0-21.74,7Q488,63.39,486.28,71.37A6.07,6.07,0,0,0,486,73.3a6.76,6.76,0,0,0,.73,2.73,7.31,7.31,0,0,0,1.8,2.52,23.35,23.35,0,0,0,3.26,2.27,29.26,29.26,0,0,1,2.92,1.92c.49.4.58.74.27,1a1.42,1.42,0,0,1-.93.4,4,4,0,0,1-1-.13,15.73,15.73,0,0,1-7.65-5q-3.12-3.66-3.12-6.12a11.81,11.81,0,0,1,.66-4.19,11.88,11.88,0,0,1,.14-2.13q2-9.44,12.1-14.63,12.1-6.24,29.79-6.25a217.62,217.62,0,0,1,28.26,2.4q17.49,2.38,19.49,2.39,3.59-4,5.45-4.12a9.91,9.91,0,0,1,1.86-.13,3,3,0,0,1,2.13.86,2.49,2.49,0,0,1,.93,1.8,2.83,2.83,0,0,1-.8,1.86A21,21,0,0,1,579,53.48a35.06,35.06,0,0,0-3.92,3.26q-6.92,6.91-6.91,12.11a6.4,6.4,0,0,0,.93,3.65c.62.93.57,1.6-.14,2s-1.46.11-2.26-.87q-1.34-1.06-1.33-6.78A22.28,22.28,0,0,1,567.81,56.48ZM517.13,113.8c.27,0,.4.27.4.8s-.62,1.42-1.86,2.66l-1.33,2c-2.39,3.64-4.15,5.76-5.25,6.39a6,6,0,0,1-2.66.93,15.49,15.49,0,0,1-3.06-.47c-1.38-.31-2.09-.64-2.13-1a21.22,21.22,0,0,1-.07-2.26q0-1.73,2.53-8.31a125.86,125.86,0,0,1,5.85-13q6.12-12,12.24-23.14A8.31,8.31,0,0,0,523,74.9a3.87,3.87,0,0,0-.39-1.93q.79-3.85,6.58-9.84t10.57-6a11.5,11.5,0,0,1,5.19,1.66q3.06,1.66,2.66,4.33a3,3,0,0,0-1.73-.67q-5.58,0-14,10.91a180.88,180.88,0,0,0-23.68,41.49,13.54,13.54,0,0,0-1.06,3.79v1.27c.35.88,1.08,1.15,2.19.8a6.77,6.77,0,0,0,3.13-2.4C514.78,115.31,516.34,113.8,517.13,113.8Z" transform="translate(-12.01 -42.78)"/><path class="cls-4" d="M537.75,123a10.16,10.16,0,0,1-4.59-1.27,12,12,0,0,1-4.19-3.59,8.22,8.22,0,0,1-1.73-5,11.14,11.14,0,0,1,1.2-5A34.72,34.72,0,0,1,537,97.24a77.14,77.14,0,0,1,12.3-9,42.33,42.33,0,0,1,10.11-4.65,29.8,29.8,0,0,1,7.25-.93,10.25,10.25,0,0,1,6.05,1.79q2.52,1.8,2.52,3.79c0,.45,0,.71-.13.8s-.31,0-.66-.13c-1.07-1.68-3.26-2.53-6.59-2.53s-7.09,1.09-11.3,3.26a58.57,58.57,0,0,0-11.91,8.18,52.33,52.33,0,0,0-8.18,9.91q-3.53,5.52-3.52,8,0,4.93,2.79,4.93t8.51-4.53a168.37,168.37,0,0,0,12.91-11.7q12.23-13.17,13.16-13.17a10.49,10.49,0,0,1,3.86.93c1.51.62,2,1.38,1.46,2.26q-6.78,9.58-8,19.29a28.49,28.49,0,0,0-.13,3.06,4.44,4.44,0,0,0,1.06,3.06q2,2.13,5.46.26a56.31,56.31,0,0,0,9.64-7.44,66.65,66.65,0,0,0,9.91-10.91.89.89,0,0,1,1.19-.33c.45.22.67.42.67.6q0,2-6.32,8.71a78.58,78.58,0,0,1-9.64,9.11q-6.25,4.65-11.57,4.65-5.06,0-6.78-5a14.66,14.66,0,0,1-.4-3.59,35.73,35.73,0,0,1,2.52-12.64,52.92,52.92,0,0,0-4.92,5.32,78.15,78.15,0,0,1-10.17,9.71Q542.4,123,537.75,123Z" transform="translate(-12.01 -42.78)"/><path class="cls-4" d="M629,83.74Q632,83.74,632,87T629,96q-3.06,5.72-4.52,9.31-2.52,6.12-2.53,9.77c0,2.44.36,4.06,1.07,4.86,1.33,1.42,3.14,1.48,5.45.2a61.24,61.24,0,0,0,9.64-7.45A63.6,63.6,0,0,0,648,101.83a1,1,0,0,1,1.27-.33c.48.22.73.44.73.66a1.32,1.32,0,0,1-.27.73,51.34,51.34,0,0,1-7.18,9.18,65.81,65.81,0,0,1-10,9,16.33,16.33,0,0,1-9.44,3.39q-4.51-.14-6.38-2.06a6.73,6.73,0,0,1-1.86-4.86,29,29,0,0,1,.53-5.65,34.91,34.91,0,0,1,2-6.32,92.46,92.46,0,0,1,4.19-8.91c1.2-2.13,1.8-3.52,1.8-4.19s-.36-1-1.07-1q-2.13,0-8.11,5.18-4.12,3.85-12.17,14.57t-9.11,11.37c-3.19,1.59-5.19,2.39-6,2.39s-1.2-.13-1.2-.4a3.84,3.84,0,0,1,.26-1.13c.18-.49,1.05-2.9,2.6-7.25s3.23-9.11,5-14.29,2.93-8.32,3.33-9.38a16.22,16.22,0,0,0,.8-2.73,13.43,13.43,0,0,1,.46-1.93,6.74,6.74,0,0,1,1-1.79A2.46,2.46,0,0,1,601.19,85a14.24,14.24,0,0,1,3.06.27c1.24.22,1.86.78,1.86,1.66A13.45,13.45,0,0,1,604.64,91q-1.46,3.12-8.37,21.48,4.79-5.85,12.1-13.5a126.62,126.62,0,0,1,12.37-11.64Q625.8,83.75,629,83.74Z" transform="translate(-12.01 -42.78)"/><path class="cls-4" d="M677,82.81q7.17,0,7.18,6.92a8.53,8.53,0,0,1-2,5.85q-3.31,4.92-10.77,8.58t-12.63,4c-1.25.09-1.91-.26-2-1.06-.09-.35,0-.58.33-.67a3.31,3.31,0,0,1,.73-.13,21.22,21.22,0,0,0,7.85-2.92q8.91-4.8,13-9.85A7.89,7.89,0,0,0,680.45,89a1.91,1.91,0,0,0-2.12-2.19,11.37,11.37,0,0,0-4.66,1.46q-6.25,2.92-13.17,10.18t-9,14.16a14.12,14.12,0,0,0-.66,4.19,5.74,5.74,0,0,0,1.72,3.93q1.74,1.86,5.32,1.86a24.66,24.66,0,0,0,9.18-2.13q15-6.12,23.14-18.49c.54-.71,1-.84,1.47-.4.35.18.53.4.53.67a1.62,1.62,0,0,1-.4.93A47.57,47.57,0,0,1,681.65,115q-11.83,10.09-23,10.1-9.57,0-13.43-5.71a9.81,9.81,0,0,1-1.46-5.46,21.12,21.12,0,0,1,1.73-7.58q3.32-7.57,14.23-15.56T677,82.81Z" transform="translate(-12.01 -42.78)"/><path class="cls-4" d="M658.51,172.19a11.67,11.67,0,0,1-2.66-.4q-6.92-1.87-6.92-7.25T656,151.11q7-8.06,29.53-23A270.07,270.07,0,0,0,699.6,94.25q-1.07,1.34-4.38,5.25T691,104.76c-.62.88-1.2.93-1.73.13a2.07,2.07,0,0,1,.4-1.86q2.52-3.06,6.78-8.85t5.19-6.85q2.65-2.39,7.45.67c1.15.8,1.59,1.46,1.33,2q-7.73,18.09-14.37,32.45,2.93-1.59,10.24-8a146.9,146.9,0,0,0,13.17-13.1c2-2.31,2.93-2.66,2.93-1.07q0,3.33-16,17.56-9.32,8.25-13,10.37-11.29,23.28-15.16,29.26Q667.95,172.2,658.51,172.19Zm24.47-39q-16,12-22.88,18.95t-6.91,13.1a3,3,0,0,0,1.19,2.66,4.53,4.53,0,0,0,2.53.8c.89,0,2.18-.67,3.86-2a39.68,39.68,0,0,0,4.32-3.92c1.2-1.29,2.24-2.48,3.13-3.59s1.88-2.53,3-4.26l2.59-4.05q.93-1.47,2.6-4.59l2.26-4.26q.6-1.12,2.26-4.59C682,135.17,682.71,133.75,683,133.22ZM719.69,67l-1.07,4.26c0,.8-.6,2.08-1.79,3.86s-2.11,2.66-2.73,2.66q-5.72,0-5.72-2.8,0-.52,5.72-4.92l2.26-1.73a9.9,9.9,0,0,1,2.86-1.86C719.53,66.45,719.69,66.63,719.69,67Z" transform="translate(-12.01 -42.78)"/><path class="cls-4" d="M723.94,123a10.16,10.16,0,0,1-4.59-1.27,12,12,0,0,1-4.18-3.59,8.15,8.15,0,0,1-1.73-5,11.26,11.26,0,0,1,1.19-5,34.87,34.87,0,0,1,8.58-10.84,78,78,0,0,1,12.3-9,42.68,42.68,0,0,1,10.11-4.65,29.86,29.86,0,0,1,7.25-.93,10.2,10.2,0,0,1,6,1.79c1.68,1.2,2.53,2.46,2.53,3.79a1.47,1.47,0,0,1-.13.8c-.09.09-.32,0-.67-.13-1.06-1.68-3.26-2.53-6.58-2.53s-7.1,1.09-11.31,3.26a58.51,58.51,0,0,0-11.9,8.18,52,52,0,0,0-8.18,9.91q-3.52,5.52-3.53,8c0,3.29.94,4.93,2.8,4.93s4.7-1.51,8.51-4.53a169.67,169.67,0,0,0,12.9-11.7q12.24-13.17,13.17-13.17a10.53,10.53,0,0,1,3.86.93c1.5.62,2,1.38,1.46,2.26q-6.78,9.58-8,19.29a28.13,28.13,0,0,0-.14,3.06,4.44,4.44,0,0,0,1.07,3.06q2,2.13,5.45.26a55.92,55.92,0,0,0,9.64-7.44,65.75,65.75,0,0,0,9.91-10.91.9.9,0,0,1,1.2-.33c.44.22.67.42.67.6q0,2-6.32,8.71a78.58,78.58,0,0,1-9.64,9.11q-6.26,4.65-11.58,4.65-5.05,0-6.78-5a15.16,15.16,0,0,1-.4-3.59,35.53,35.53,0,0,1,2.53-12.64,50.29,50.29,0,0,0-4.92,5.32,78.9,78.9,0,0,1-10.18,9.71Q728.61,123,723.94,123Z" transform="translate(-12.01 -42.78)"/></g></g></svg>